<svg width="82" height="45" viewBox="0 0 82 45" fill="none" xmlns="http://www.w3.org/2000/svg">
<g clip-path="url(#clip0_733_869)">
<path d="M63.4733 14.1958C62.5689 14.8536 61.5 15.2646 60.2668 15.2646C57.4713 15.2646 55.2514 13.0447 55.2514 10.3315C55.2514 7.61826 57.5535 5.39835 60.2668 5.39835C61.5 5.39835 62.5689 5.80944 63.4733 6.4672L64.5422 5.39835C63.3911 4.41172 61.9111 3.83618 60.2668 3.83618C56.6491 3.83618 53.6892 6.71385 53.6892 10.2493C53.6892 13.7847 56.6491 16.6624 60.2668 16.6624C61.9111 16.6624 63.3911 16.0868 64.5422 15.1002L63.4733 14.1958Z" fill="currentColor"/>
<path d="M1.56222 4.00061V6.22053C2.71329 4.8228 4.4399 4.00061 6.24872 4.00061C9.61971 4.00061 12.4152 6.79606 12.4152 10.3315C12.4152 13.8669 9.61971 16.7446 6.24872 16.8268C4.4399 16.8268 2.71329 16.0046 1.56222 14.6069V21.4311H0.0822754V4.00061H1.56222ZM6.1665 5.56278C3.6177 5.56278 1.48 7.70047 1.48 10.4137V10.5781C1.56222 13.2092 3.6177 15.2646 6.1665 15.2646C8.79751 15.2646 10.853 13.0447 10.853 10.4137C10.853 7.78269 8.7153 5.56278 6.1665 5.56278Z" fill="currentColor"/>
<path d="M23.6792 3.91846V11.4826C23.6792 13.5381 22.0348 15.1825 19.8971 15.2647C17.8416 15.2647 16.1972 13.6203 16.1972 11.4826V3.91846H14.7173V11.4826C14.7173 14.3603 17.0194 16.7447 19.8971 16.7447C22.7748 16.7447 25.1591 14.3603 25.1591 11.4826V3.91846H23.6792Z" fill="currentColor"/>
<path d="M29.6812 0.136353V6.13835C30.8323 4.74063 32.5589 3.91844 34.3677 3.91844C37.7387 3.91844 40.5342 6.79611 40.5342 10.4138C40.5342 13.867 37.7387 16.7446 34.3677 16.7446C32.5589 16.7446 30.8323 15.9224 29.6812 14.5247V16.7446H28.2013V0.136353H29.6812ZM34.3677 5.56282C31.8189 5.56282 29.7635 7.6183 29.6812 10.2493V10.4138C29.6812 13.0448 31.8189 15.2647 34.3677 15.2647C36.9165 15.2647 39.0542 13.127 39.0542 10.4138C39.0542 7.70052 36.9165 5.4806 34.3677 5.56282Z" fill="currentColor"/>
<path d="M49.9893 2.10961C50.4826 2.10961 50.9759 1.69852 50.9759 1.12298C50.9759 0.547448 50.5649 0.136353 49.9893 0.136353C49.496 0.136353 49.0027 0.547448 49.0027 1.12298C49.0027 1.69852 49.4138 2.10961 49.9893 2.10961Z" fill="currentColor"/>
<path d="M50.7293 3.91846H49.2494V16.7447H50.7293V3.91846Z" fill="currentColor"/>
<path d="M68.8176 2.10961C69.3109 2.10961 69.8042 1.69852 69.8042 1.12298C69.8042 0.547448 69.3931 0.136353 68.8176 0.136353C68.3243 0.136353 67.8309 0.547448 67.8309 1.12298C67.8309 1.69852 68.242 2.10961 68.8176 2.10961Z" fill="currentColor"/>
<path d="M69.5576 3.91846H68.0776V16.7447H69.5576V3.91846Z" fill="currentColor"/>
<path d="M80.7394 10.5782C80.4653 10.3589 80.1913 10.1945 79.9172 10.0849C79.5061 9.92042 78.9306 9.67376 77.6151 9.42711C77.4506 9.34489 77.2862 9.34489 77.1217 9.34489C76.2995 9.09823 75.6418 8.85157 75.1485 8.52269C74.6552 8.1116 74.4907 7.78272 74.4907 7.37162C74.4907 6.87831 74.8196 6.46721 75.3129 6.05612C75.8885 5.64502 76.7106 5.39836 77.6151 5.48058C78.6839 5.5628 79.5061 6.05612 80.3283 6.71387L80.4105 6.79609L81.4794 5.80946C81.3149 5.64502 81.3149 5.64502 80.986 5.39836C80.1639 4.82283 79.095 4.16507 77.6151 4.16507C76.3818 4.08286 75.3129 4.32951 74.4085 4.90505C73.5041 5.5628 72.9286 6.46721 72.9286 7.37162C72.9286 8.1116 73.093 8.76935 73.7508 9.42711C74.5729 10.2493 75.9707 10.6604 77.1217 10.9071C78.1906 11.0715 79.095 11.4826 79.5883 11.8937C80.1639 12.387 80.4105 12.7981 80.4105 13.3736C80.4105 13.8669 79.9994 14.4425 79.4239 14.7714C78.8483 15.1825 77.9439 15.4291 77.1217 15.4291C75.9707 15.3469 74.7374 14.8536 73.5041 13.9492L73.4219 13.8669L72.353 14.8536L72.4352 14.9358C73.833 16.1691 75.3951 16.8268 77.0395 16.9091C78.2728 16.9913 79.3417 16.6624 80.2461 16.0046C81.2327 15.3469 81.8082 14.4425 81.8082 13.4558C82.1371 12.2226 81.6438 11.2359 80.7394 10.5782Z" fill="currentColor"/>
<path d="M44.8095 0.218628H43.3296V16.7447H44.8095V0.218628Z" fill="currentColor"/>
<path d="M44.0695 25.5421C44.5628 25.5421 45.0561 25.131 45.0561 24.5555C45.0561 23.9799 44.6451 23.5688 44.0695 23.5688C43.5762 23.5688 43.0829 23.9799 43.0829 24.5555C43.0829 25.131 43.494 25.5421 44.0695 25.5421Z" fill="currentColor"/>
<path d="M44.8095 27.351H43.3296V40.1771H44.8095V27.351Z" fill="currentColor"/>
<path d="M24.1725 27.351V40.1771H22.6925V37.9572C21.5415 39.355 19.8149 40.1771 18.006 40.1771C14.6351 40.1771 11.8396 37.2995 11.8396 33.6818C11.8396 30.2286 14.6351 27.351 18.006 27.351C19.8149 27.351 21.5415 28.1731 22.6925 29.5709V27.351H24.1725ZM18.006 28.9131C15.4572 28.9131 13.3195 31.0508 13.3195 33.764C13.3195 36.4773 15.4572 38.6972 18.006 38.615C20.5548 38.615 22.6103 36.5595 22.6925 33.9285V33.764C22.6925 31.133 20.5548 28.9131 18.006 28.9131Z" fill="currentColor"/>
<path d="M29.6811 27.4331V29.653C30.8322 28.2553 32.5588 27.4331 34.3676 27.4331C37.7386 27.4331 40.5341 30.2286 40.5341 33.764C40.5341 37.2994 37.7386 40.1771 34.3676 40.2593C32.5588 40.2593 30.8322 39.4371 29.6811 38.0394V44.8636H28.2012V27.4331H29.6811ZM34.3676 28.9953C31.8188 28.9953 29.6811 31.133 29.6811 33.8462V34.0106C29.7633 36.6417 31.8188 38.6971 34.3676 38.6971C36.9164 38.6971 39.0541 36.4772 39.0541 33.8462C39.0541 31.2152 36.9164 28.9953 34.3676 28.9953Z" fill="currentColor"/>
<path d="M68.653 27.351C67.2553 27.351 65.8576 27.9265 64.8709 28.9953V27.351H63.391V40.1771H64.8709V32.613C64.9532 30.5575 66.5975 28.9131 68.653 28.9131C70.7085 28.9131 72.3529 30.5575 72.3529 32.613V40.1771H73.8328V32.613C73.9151 29.7353 71.5307 27.351 68.653 27.351Z" fill="currentColor"/>
<path d="M81.726 38.6971H81.5615C81.3971 38.6971 81.1504 38.7794 80.8215 38.7794C80.246 38.7794 79.9171 38.3683 79.9171 37.4639V28.7486H81.726V27.2687H79.9171V22.9933H78.355V27.2687H76.5461V28.7486H78.355V37.5461C78.355 38.5327 78.5194 39.1082 78.9305 39.5193C79.2594 39.9304 79.8349 40.0949 80.4104 40.0949C80.9038 40.0949 81.3149 40.0127 81.6437 39.9304H81.726V38.6971Z" fill="currentColor"/>
<path d="M54.1825 27.5154C57.4713 27.5154 60.1023 30.0642 60.3489 33.4352V33.5174C60.3489 33.8463 60.0201 34.1751 59.609 34.1751H49.496C49.6604 36.7239 51.7159 38.6972 54.1825 38.6972C55.8269 38.6972 57.3068 37.875 58.129 36.4773L59.3623 37.3817C58.2112 39.1905 56.238 40.2594 54.1825 40.2594C50.7293 40.2594 47.9338 37.4639 47.9338 33.9285C47.9338 30.3931 50.7293 27.5154 54.1825 27.5154ZM54.2647 28.9131C51.9626 28.9131 50.1538 30.4753 49.5782 32.6952H58.7868C58.3757 30.4753 56.4846 28.9131 54.2647 28.9131Z" fill="currentColor"/>
<path d="M8.38636 34.0107C8.1123 33.7914 7.83823 33.627 7.56417 33.5174C7.15307 33.3529 6.57754 33.1063 5.26203 32.8596C5.09759 32.7774 4.93315 32.7774 4.76872 32.7774C3.94652 32.5307 3.28877 32.2841 2.79545 31.9552C2.30214 31.5441 2.1377 31.2152 2.1377 30.8041C2.1377 30.3108 2.46658 29.8997 2.95989 29.4886C3.53543 29.0775 4.35762 28.8309 5.26203 28.9131C6.33088 28.9953 7.15307 29.4886 7.97527 30.1464L8.05749 30.2286L9.12634 29.242C8.9619 29.0775 8.9619 29.0775 8.63302 28.8309C7.81083 28.2553 6.74198 27.5976 5.26203 27.5976C4.02874 27.5154 2.95989 27.762 2.05548 28.3375C1.15107 28.9953 0.575535 29.8997 0.575535 30.8041C0.575535 31.5441 0.739973 32.2018 1.39773 32.8596C2.21992 33.6818 3.61765 34.0929 4.76872 34.3395C5.83757 34.504 6.74198 34.9151 7.23529 35.3262C7.81083 35.8195 8.05749 36.2306 8.05749 36.8061C8.05749 37.2994 7.64639 37.875 7.07086 38.2039C6.49532 38.6149 5.59091 38.8616 4.76872 38.8616C3.61765 38.7794 2.38436 38.2861 1.15107 37.3817L1.06885 37.2994L0 38.2861L0.0822192 38.3683C1.47995 39.6016 3.04211 40.2593 4.6865 40.3415C5.91979 40.4238 6.98864 40.0949 7.89305 39.4371C8.87968 38.7794 9.45521 37.875 9.45521 36.8883C9.78409 35.6551 9.20856 34.6684 8.38636 34.0107Z" fill="currentColor"/>
</g>
<defs>
<clipPath id="clip0_733_869">
<rect width="82" height="44.7273" fill="currentColor" transform="translate(0 0.136353)"/>
</clipPath>
</defs>
</svg>
