<svg xmlns="http://www.w3.org/2000/svg" fill="none" viewBox="0 0 77 33" height="33" width="77">
<path fill="currentColor" d="M76.881 16.8411H63.995C64.0177 18.3371 64.335 19.5271 64.947 20.4111C65.9217 21.8391 67.327 22.5531 69.163 22.5531C71.4297 22.5531 72.9597 21.4764 73.753 19.3231H76.541C76.1784 21.1591 75.3397 22.5871 74.025 23.6071C72.7104 24.6271 71.0557 25.1371 69.061 25.1371C66.409 25.1371 64.3804 24.2304 62.975 22.4171C61.7284 20.8304 61.105 18.7338 61.105 16.1271C61.105 13.1124 61.921 10.7664 63.553 9.08909C64.981 7.63842 66.8284 6.91309 69.095 6.91309C70.7497 6.91309 72.2004 7.30975 73.447 8.10309C74.7164 8.89642 75.623 9.98442 76.167 11.3671C76.643 12.5458 76.881 14.3364 76.881 16.7391V16.8411ZM73.889 14.5631C73.889 13.0444 73.4357 11.8204 72.529 10.8911C71.645 9.93909 70.5004 9.46309 69.095 9.46309C67.667 9.46309 66.4997 9.92775 65.593 10.8571C64.709 11.7638 64.2104 12.9991 64.097 14.5631H73.889Z"></path>
<path fill="currentColor" d="M57.834 12.0811H54.774C54.6834 10.3358 53.516 9.46309 51.272 9.46309C50.116 9.46309 49.198 9.68975 48.518 10.1431C47.8607 10.5738 47.532 11.1631 47.532 11.9111C47.532 13.0444 48.6087 13.8604 50.762 14.3591L53.448 14.9711C55.1934 15.3791 56.4514 15.9571 57.222 16.7051C57.9927 17.4531 58.378 18.4731 58.378 19.7651C58.378 21.4198 57.732 22.7344 56.44 23.7091C55.148 24.6611 53.4027 25.1371 51.204 25.1371C48.8014 25.1371 46.9767 24.5704 45.73 23.4371C44.6874 22.5078 44.132 21.2724 44.064 19.7311H47.226C47.4074 20.5244 47.6567 21.1024 47.974 21.4651C48.586 22.1904 49.7307 22.5531 51.408 22.5531C52.6547 22.5531 53.6407 22.3264 54.366 21.8731C55.114 21.3971 55.488 20.7738 55.488 20.0031C55.488 18.8471 54.5927 18.0538 52.802 17.6231L50.184 17.0111C48.1894 16.5351 46.7954 15.9684 46.002 15.3111C45.0954 14.5631 44.642 13.4864 44.642 12.0811C44.642 10.4944 45.2427 9.23642 46.444 8.30709C47.668 7.37775 49.3 6.91309 51.34 6.91309C53.4707 6.91309 55.1254 7.44575 56.304 8.51109C57.324 9.44042 57.834 10.6304 57.834 12.0811Z"></path>
<path fill="currentColor" d="M40.7397 0.418945V24.7629H37.9517V0.418945H40.7397Z"></path>
<path fill="currentColor" d="M33.1946 24.7629H30.4406V22.0089C29.194 24.0942 27.3353 25.1369 24.8646 25.1369C23.1646 25.1369 21.8046 24.7175 20.7846 23.8789C19.7873 23.0175 19.2886 21.8729 19.2886 20.4449V7.28687H22.0426V19.3229C22.0426 20.3429 22.3713 21.1589 23.0286 21.7709C23.686 22.3829 24.57 22.6889 25.6806 22.6889C27.1313 22.6889 28.2873 22.1675 29.1486 21.1249C30.01 20.0595 30.4406 18.6315 30.4406 16.8409V7.28687H33.1946V24.7629Z"></path>
<path fill="currentColor" d="M0.354065 32.0391V7.28709H2.93807V9.97309C4.23006 7.93309 6.08873 6.91309 8.51407 6.91309C10.9847 6.91309 12.8887 7.86509 14.2261 9.76909C15.4047 11.4238 15.9941 13.5998 15.9941 16.2971C15.9941 19.1758 15.2234 21.4198 13.6821 23.0291C12.3447 24.4344 10.6107 25.1371 8.48007 25.1371C6.32673 25.1371 4.5474 24.3551 3.14207 22.7911V32.0391H0.354065ZM8.03806 9.49709C6.56473 9.49709 5.37473 10.0978 4.46807 11.2991C3.58407 12.5004 3.14207 14.1098 3.14207 16.1271C3.14207 18.2124 3.65207 19.8444 4.67207 21.0231C5.5334 22.0204 6.6554 22.5191 8.03806 22.5191C9.5794 22.5191 10.8034 21.9411 11.7101 20.7851C12.6394 19.6064 13.1041 18.0538 13.1041 16.1271C13.1041 13.9964 12.5827 12.3191 11.5401 11.0951C10.6107 10.0298 9.4434 9.49709 8.03806 9.49709Z"></path>
</svg>
