<svg xmlns="http://www.w3.org/2000/svg" fill="none" viewBox="0 0 137 35" height="35" width="137">
<path fill="currentColor" d="M0.479736 30V15.1686L15.6483 0H30.4797V14.1465L14.6262 30H0.479736ZM45.8586 19.6992H42.1897C42.234 22.6654 43.1913 24.901 45.0618 26.4062C46.9433 27.9004 49.7102 28.6475 53.3625 28.6475C56.7493 28.6475 59.3668 27.9779 61.2151 26.6387C63.0745 25.2884 64.0042 23.3958 64.0042 20.9609C64.0042 19.0684 63.4397 17.624 62.3108 16.6279C61.193 15.6208 59.2174 14.846 56.384 14.3037L50.9885 13.2412C49.3394 12.9202 48.1995 12.5163 47.5686 12.0293C46.9488 11.5312 46.6389 10.8229 46.6389 9.9043C46.6389 8.64258 47.1868 7.67969 48.2825 7.01562C49.3892 6.34049 50.983 6.00293 53.0637 6.00293C55.1998 6.00293 56.7991 6.37923 57.8616 7.13184C58.9351 7.87337 59.5328 9.02441 59.6545 10.585H63.1243C63.0911 8.08366 62.2333 6.16341 60.551 4.82422C58.8687 3.47396 56.4615 2.79883 53.3293 2.79883C50.009 2.79883 47.4524 3.44629 45.6594 4.74121C43.8665 6.02506 42.97 7.85124 42.97 10.2197C42.97 12.0238 43.5344 13.4515 44.6633 14.5029C45.8033 15.5433 47.6073 16.2793 50.0754 16.7109L56.1516 17.8066C57.6679 18.0723 58.747 18.4762 59.3889 19.0186C60.0419 19.5498 60.3684 20.2969 60.3684 21.2598C60.3684 22.5879 59.7763 23.6117 58.592 24.3311C57.4078 25.0505 55.731 25.4102 53.5618 25.4102C51.0273 25.4102 49.1236 24.9453 47.8508 24.0156C46.5891 23.0749 45.925 21.6361 45.8586 19.6992ZM64.9345 9.80469L71.8075 28H75.5761L80.0585 13.0752L84.3417 28H88.0937L95.1327 9.80469H91.248L86.3505 24.9121L82.0341 9.80469H78.2324L73.6337 24.9121L68.9521 9.80469H64.9345ZM107.568 27.6182C108.874 27.0537 109.936 26.2402 110.755 25.1777C110.921 26.1628 111.259 26.8822 111.768 27.3359C112.288 27.7786 113.03 28 113.993 28C114.391 28 114.806 27.9889 115.238 27.9668C115.67 27.9336 116.101 27.8893 116.533 27.834V25.1777C116.356 25.2109 116.184 25.2386 116.018 25.2607C115.863 25.2718 115.719 25.2773 115.587 25.2773C114.978 25.2773 114.552 25.0837 114.308 24.6963C114.076 24.3089 113.96 23.6061 113.96 22.5879V15.25C113.96 13.0365 113.329 11.4759 112.067 10.5684C110.816 9.64974 108.669 9.19043 105.626 9.19043C102.825 9.19043 100.689 9.73275 99.2174 10.8174C97.7565 11.891 96.9706 13.4958 96.86 15.6318L100.28 15.6152C100.368 14.3646 100.844 13.457 101.708 12.8926C102.582 12.3281 103.965 12.0459 105.858 12.0459C107.529 12.0459 108.736 12.2673 109.477 12.71C110.219 13.1416 110.589 13.8389 110.589 14.8018C110.589 16.0856 109.034 16.877 105.924 17.1758C105.316 17.2422 104.851 17.292 104.53 17.3252C102.693 17.5244 101.365 17.7126 100.546 17.8896C99.7376 18.0667 99.1178 18.2881 98.6861 18.5537C97.8118 19.085 97.1533 19.7214 96.7106 20.4629C96.2789 21.1934 96.0631 22.029 96.0631 22.9697C96.0631 24.6963 96.6774 26.041 97.9059 27.0039C99.1344 27.9668 100.866 28.4482 103.102 28.4482C104.773 28.4482 106.262 28.1715 107.568 27.6182ZM108.647 19.3672C109.532 19.1569 110.202 18.9189 110.656 18.6533V21.376C110.656 22.5713 109.992 23.584 108.664 24.4141C107.336 25.2441 105.664 25.6592 103.65 25.6592C102.399 25.6592 101.42 25.4102 100.712 24.9121C100.014 24.4141 99.6656 23.7223 99.6656 22.8369C99.6656 21.9736 99.9866 21.3372 100.629 20.9277C101.27 20.5182 102.776 20.1807 105.144 19.915C106.605 19.749 107.773 19.5664 108.647 19.3672ZM126.229 31.6357C126.76 30.7946 127.391 29.5384 128.121 27.8672L136.19 9.80469H132.338L126.295 25.1445L120.103 9.80469H116.168L124.419 28C124.043 29.3171 123.561 30.2191 122.975 30.7061C122.388 31.193 121.508 31.4365 120.335 31.4365C120.114 31.4365 119.848 31.4199 119.538 31.3867C119.228 31.3535 118.852 31.3037 118.409 31.2373V34.3252C118.852 34.3695 119.267 34.4027 119.655 34.4248C120.042 34.4469 120.385 34.458 120.684 34.458C121.569 34.458 122.35 34.3695 123.025 34.1924C123.7 34.0264 124.27 33.7773 124.735 33.4453C125.211 33.0911 125.709 32.488 126.229 31.6357Z" clip-rule="evenodd" fill-rule="evenodd"></path>
</svg>
