<svg width="8" height="8" viewBox="0 0 8 8" fill="none" xmlns="http://www.w3.org/2000/svg">
<path d="M0.196912 7.80309C0.45946 8.06564 0.885135 8.06564 1.14768 7.80309L6.6554 2.29537L6.6554 6.0169C6.6554 6.3882 6.9564 6.6892 7.3277 6.6892C7.699 6.6892 8 6.3882 8 6.0169L8 0.672298C8 0.300999 7.699 1.92482e-07 7.3277 1.60022e-07L1.98316 3.5397e-06C1.61186 3.3089e-06 1.31086 0.301002 1.31086 0.672301C1.31086 1.0436 1.61186 1.3446 1.98316 1.3446L5.70463 1.3446L0.196912 6.85232C-0.0656367 7.11486 -0.0656367 7.54054 0.196912 7.80309Z" fill="#222222"/>
</svg>
