<svg width="172" height="41" viewBox="0 0 172 41" fill="none" xmlns="http://www.w3.org/2000/svg">
<g clip-path="url(#clip0_733_902)">
<path fill-rule="evenodd" clip-rule="evenodd" d="M31.9412 6.9199C31.6691 9.42434 33.0471 11.8175 35.3478 12.8342C39.9357 14.8614 39.9357 21.3856 35.3478 23.4128C33.0471 24.4295 31.6691 26.8227 31.9412 29.3271C32.4828 34.3217 26.8461 37.5844 22.801 34.6159C20.7726 33.1279 18.0162 33.1279 15.9877 34.6159C11.9427 37.5844 6.30589 34.3229 6.84761 29.3271C7.11967 26.8227 5.74149 24.4295 3.44095 23.4128C-1.14698 21.3856 -1.14698 14.8614 3.44095 12.8342C5.74149 11.8175 7.11967 9.42434 6.84761 6.9199C6.30589 1.92537 11.9427 -1.33734 15.9877 1.63116C18.0162 3.119 20.7726 3.119 22.801 1.63116C26.8461 -1.33734 32.4828 1.92418 31.9412 6.9199ZM28.7468 26.361L22.5612 20.1609C21.4383 19.0354 21.4383 17.2116 22.5612 16.0861L28.7468 9.88599L27.6121 8.74859L21.4265 14.9487C20.3048 16.0742 18.4851 16.0742 17.3623 14.9487L11.1766 8.74859L10.0419 9.88599L16.2275 16.0873C17.3504 17.2116 17.3504 19.0354 16.2275 20.1609L10.0419 26.361L11.1766 27.4984L17.3623 21.2983C18.4839 20.1728 20.3036 20.1728 21.4265 21.2983L27.6121 27.4984L28.7468 26.361ZM141.149 21.6771L152.03 11.7455L147.688 11.7993L133.262 25.1873L132.51 24.508C133.933 22.904 133.925 21.0909 133.913 18.3343C133.912 18.0775 133.911 17.8125 133.911 17.539V1.6667H130.657V35.7457H133.911V28.248L138.817 23.7689L148.822 35.7457H153L141.149 21.6771ZM66.9596 11.0636C61.9563 11.0636 59.4757 15.0069 58.7478 17.4898H57.5451C58.5163 15.7377 58.8982 13.9843 58.8982 9.65234V1.66779H55.6919V35.7469H58.9459V24.8417C58.9459 21.2392 59.4805 13.9855 66.2317 13.9855C69.9236 13.9855 72.2551 16.2244 72.2551 21.1902V35.7469H75.4613V20.4104C75.4589 15.0559 73.0307 11.0636 66.9596 11.0636ZM89.9302 11.0638C83.4689 11.0638 78.1448 16.0787 78.1448 23.7702C78.1448 31.463 83.6241 36.3797 89.9302 36.3797C96.2364 36.3797 101.716 31.463 101.716 23.7702C101.716 16.0787 96.3915 11.0638 89.9302 11.0638ZM89.9302 33.5069C85.3816 33.5069 81.7124 30.3422 81.7124 23.8181C81.7124 17.2938 85.3816 13.9832 89.9302 13.9832C94.4787 13.9832 98.1479 17.2938 98.1479 23.8181C98.1491 30.3422 94.4787 33.5069 89.9302 33.5069ZM104.401 23.7702C104.401 16.0787 109.725 11.0638 116.186 11.0638C122.647 11.0638 127.972 16.0787 127.972 23.7702C127.972 31.463 122.492 36.3797 116.186 36.3797C109.88 36.3797 104.401 31.463 104.401 23.7702ZM107.968 23.8181C107.968 30.3422 111.638 33.5069 116.186 33.5069C120.735 33.5069 124.405 30.3422 124.404 23.8181C124.404 17.2938 120.735 13.9832 116.186 13.9832C111.638 13.9832 107.968 17.2938 107.968 23.8181Z" fill="currentColor"/>
</g>
<defs>
<clipPath id="clip0_733_902">
<rect width="171.667" height="40" fill="currentColor" transform="translate(0 0.5)"/>
</clipPath>
</defs>
</svg>
