<svg width="95" height="96" viewBox="0 0 95 96" fill="none" xmlns="http://www.w3.org/2000/svg">
<path d="M93.9614 21.7177C93.996 21.8457 94.0137 21.9777 94.014 22.1102V42.7164C94.014 42.9809 93.9442 43.2406 93.8116 43.4695C93.6791 43.6984 93.4884 43.8882 93.259 44.0197L75.9639 53.9773V73.7139C75.9639 74.251 75.6784 74.7468 75.2127 75.0172L39.1106 95.7999C39.028 95.8469 38.9378 95.8769 38.8477 95.9088C38.8139 95.9201 38.7819 95.9408 38.7463 95.9501C38.4939 96.0166 38.2286 96.0166 37.9763 95.9501C37.9349 95.9389 37.8974 95.9163 37.8579 95.9013C37.7753 95.8713 37.6889 95.845 37.61 95.7999L1.51548 75.0172C1.28618 74.8855 1.09566 74.6957 0.963112 74.4668C0.830566 74.238 0.76068 73.9783 0.760498 73.7139V11.8954C0.760498 11.7602 0.779279 11.6287 0.813084 11.501C0.824352 11.4578 0.850645 11.4184 0.86567 11.3752C0.893841 11.2963 0.920134 11.2156 0.961451 11.1423C0.989622 11.0935 1.03094 11.0541 1.06474 11.009C1.10794 10.9489 1.14738 10.8869 1.19809 10.8343C1.24128 10.7911 1.29762 10.7592 1.34645 10.7216C1.40092 10.6766 1.44975 10.6277 1.51172 10.5921L19.5618 0.200711C19.7903 0.0692101 20.0494 0 20.313 0C20.5767 0 20.8357 0.0692101 21.0643 0.200711L39.1125 10.5921H39.1162C39.1763 10.6296 39.227 10.6766 39.2815 10.7198C39.3303 10.7573 39.3848 10.7911 39.428 10.8324C39.4806 10.8869 39.5181 10.9489 39.5632 11.009C39.5951 11.0541 39.6383 11.0935 39.6646 11.1423C39.7078 11.2174 39.7322 11.2963 39.7623 11.3752C39.7773 11.4184 39.8036 11.4578 39.8149 11.5029C39.8495 11.6309 39.8671 11.7629 39.8675 11.8954V50.5066L54.907 41.8468V22.1084C54.907 21.9769 54.9258 21.8435 54.9596 21.7177C54.9727 21.6726 54.9972 21.6332 55.0122 21.59C55.0422 21.5111 55.0685 21.4304 55.1098 21.3571C55.138 21.3083 55.1793 21.2689 55.2113 21.2238C55.2563 21.1637 55.2939 21.1017 55.3465 21.0491C55.3897 21.0059 55.4441 20.974 55.493 20.9364C55.5493 20.8914 55.5981 20.8425 55.6582 20.8069L73.7102 10.4155C73.9387 10.2838 74.1977 10.2145 74.4614 10.2145C74.7251 10.2145 74.9842 10.2838 75.2127 10.4155L93.2609 20.8069C93.3247 20.8444 93.3736 20.8914 93.4299 20.9346C93.4769 20.9721 93.5313 21.0059 93.5745 21.0472C93.6271 21.1017 93.6647 21.1637 93.7097 21.2238C93.7435 21.2689 93.7849 21.3083 93.8112 21.3571C93.8544 21.4304 93.8788 21.5111 93.9088 21.59C93.9257 21.6332 93.9501 21.6726 93.9614 21.7177ZM91.0053 41.8468V24.7114L84.6894 28.3473L75.9639 33.3711V50.5066L91.0072 41.8468H91.0053ZM72.9571 72.8443V55.6976L64.3744 60.5993L39.8656 74.5872V91.8954L72.9571 72.8443ZM3.76916 14.4965V72.8443L36.8569 91.8935V74.589L19.5712 64.8062L19.5656 64.8024L19.5581 64.7987C19.4998 64.7649 19.451 64.716 19.3965 64.6747C19.3496 64.6372 19.2951 64.6071 19.2538 64.5658L19.2501 64.5602C19.2012 64.5132 19.1674 64.455 19.1261 64.4024C19.0885 64.3517 19.0435 64.3085 19.0134 64.2559L19.0115 64.2503C18.9777 64.1939 18.9571 64.1263 18.9327 64.0625C18.9082 64.0061 18.8763 63.9535 18.8613 63.8934C18.8425 63.8221 18.8388 63.7451 18.8312 63.6718C18.8237 63.6155 18.8087 63.5591 18.8087 63.5028V23.1563L10.0851 18.1306L3.76916 14.4965ZM20.3149 3.23942L5.27725 11.8954L20.3112 20.5514L35.347 11.8936L20.3112 3.23942H20.3149ZM28.1352 57.2601L36.8588 52.2382V14.4965L30.5429 18.1325L21.8174 23.1563V60.8979L28.1352 57.2601ZM74.4614 13.4542L59.4256 22.1102L74.4614 30.7662L89.4954 22.1084L74.4614 13.4542ZM72.9571 33.3711L64.2316 28.3473L57.9157 24.7114V41.8468L66.6393 46.8688L72.9571 50.5066V33.3711ZM38.3594 71.986L60.4135 59.3955L71.4378 53.104L56.4132 44.4536L39.1144 54.413L23.348 63.4897L38.3594 71.986Z" fill="#FF2D20"/>
</svg>
