<svg width="108" height="96" viewBox="0 0 108 96" fill="none" xmlns="http://www.w3.org/2000/svg">
<path d="M88.7151 31.1154C87.5958 30.7301 86.436 30.3656 85.2417 30.0208C85.438 29.2198 85.6182 28.4291 85.7783 27.6518C88.4076 14.8888 86.6885 4.60691 80.8182 1.22166C75.1893 -2.02434 65.9837 1.36014 56.6865 9.45124C55.7924 10.2293 54.8959 11.053 53.9997 11.9163C53.4026 11.3451 52.8065 10.7932 52.2118 10.2652C42.4681 1.61366 32.7015 -2.03221 26.8369 1.36283C21.2134 4.61824 19.548 14.2842 21.9148 26.3798C22.1433 27.5481 22.4105 28.7412 22.7126 29.9542C21.3304 30.3466 19.9959 30.7649 18.7191 31.2099C7.29558 35.1926 0 41.4346 0 47.9091C0 54.5961 7.83182 61.3032 19.7303 65.37C20.6693 65.691 21.6436 65.9944 22.6477 66.2825C22.3218 67.5945 22.0383 68.8801 21.8003 70.1341C19.5436 82.0197 21.306 91.4573 26.9145 94.6922C32.7076 98.0329 42.43 94.5991 51.8973 86.3236C52.6455 85.6694 53.3965 84.9757 54.1488 84.2486C55.1239 85.1875 56.0974 86.0762 57.0658 86.9097C66.2359 94.8009 75.2928 97.9874 80.8962 94.7435C86.6835 91.3932 88.5644 81.2549 86.1225 68.9201C85.936 67.978 85.719 67.0156 85.4753 66.0361C86.158 65.8342 86.8283 65.6259 87.4819 65.4092C99.8515 61.3109 107.9 54.6854 107.9 47.9091C107.9 41.4111 100.369 35.1271 88.7151 31.1154ZM86.0322 61.0339C85.4422 61.2292 84.8369 61.418 84.22 61.6011C82.8544 57.278 81.0114 52.681 78.7561 47.9316C80.9083 43.2953 82.68 38.7571 84.0074 34.462C85.1111 34.7814 86.1824 35.1183 87.2148 35.4738C97.1996 38.9111 103.29 43.9932 103.29 47.9091C103.29 52.0803 96.7125 57.495 86.0322 61.0339ZM81.6007 69.8153C82.6804 75.2696 82.8346 80.2009 82.1194 84.0559C81.4768 87.5199 80.1844 89.8294 78.5865 90.7544C75.186 92.7226 67.9143 90.1642 60.0719 83.4156C59.1729 82.642 58.2673 81.8159 57.3589 80.9417C60.3992 77.6165 63.4377 73.751 66.4033 69.4578C71.6195 68.995 76.5476 68.2383 81.0166 67.2052C81.2367 68.0931 81.4322 68.9639 81.6007 69.8153ZM36.7854 90.4143C33.4632 91.5875 30.8172 91.6212 29.2177 90.6989C25.8142 88.7358 24.3993 81.1583 26.3293 70.9937C26.5504 69.8297 26.8135 68.6339 27.1167 67.4116C31.5368 68.389 36.4288 69.0924 41.6574 69.5162C44.643 73.7172 47.7693 77.5785 50.9199 80.9595C50.2315 81.6241 49.5459 82.2567 48.8641 82.8529C44.6777 86.5122 40.4826 89.1084 36.7854 90.4143ZM21.2211 61.0084C15.9598 59.2101 11.6148 56.8729 8.63655 54.3226C5.96038 52.0307 4.60924 49.7554 4.60924 47.9091C4.60924 43.9801 10.4669 38.9687 20.2364 35.5625C21.4218 35.1492 22.6627 34.7597 23.9504 34.3939C25.3006 38.7859 27.0718 43.3778 29.2092 48.0213C27.0441 52.7337 25.2478 57.3988 23.8844 61.8423C22.9663 61.5784 22.0769 61.3007 21.2211 61.0084ZM26.4384 25.4946C24.4106 15.1314 25.7573 7.3138 29.1462 5.3521C32.756 3.2623 40.7382 6.24192 49.1512 13.7121C49.6889 14.1895 50.2288 14.6893 50.7702 15.2063C47.6353 18.5725 44.5375 22.4049 41.5785 26.5811C36.5038 27.0514 31.6463 27.807 27.1801 28.8187C26.8993 27.6892 26.6506 26.5795 26.4384 25.4946ZM72.9814 36.9872C71.9137 35.1431 70.8176 33.3425 69.7002 31.5911C73.1429 32.0263 76.4414 32.604 79.5389 33.311C78.6089 36.2914 77.4499 39.4076 76.0855 42.6021C75.1067 40.7439 74.0715 38.8704 72.9814 36.9872ZM54.0013 18.5005C56.1274 20.8039 58.2565 23.3756 60.3508 26.1658C58.2404 26.0661 56.1039 26.0143 53.9498 26.0143C51.816 26.0143 49.6953 26.065 47.598 26.1629C49.6943 23.3986 51.8419 20.8304 54.0013 18.5005ZM34.8996 37.0191C33.8331 38.8685 32.8171 40.7318 31.8537 42.5987C30.5114 39.4153 29.3631 36.2849 28.425 33.2622C31.5036 32.5733 34.7865 32.01 38.2072 31.5831C37.0741 33.3506 35.969 35.1648 34.8996 37.0191ZM38.3058 64.564C34.7715 64.1697 31.4392 63.6354 28.3615 62.9655C29.3145 59.8888 30.4882 56.6916 31.8589 53.4397C32.8248 55.3051 33.8448 57.1693 34.9178 59.0227C36.0108 60.9108 37.1434 62.7603 38.3058 64.564ZM54.1288 77.6427C51.9441 75.2855 49.765 72.6781 47.6368 69.8735C49.7028 69.9545 51.8091 69.996 53.9498 69.996C56.1491 69.996 58.3232 69.9464 60.4631 69.8512C58.362 72.7063 56.2405 75.3178 54.1288 77.6427ZM76.1294 53.2739C77.5716 56.561 78.7874 59.7415 79.7527 62.7657C76.6242 63.4794 73.2464 64.0542 69.6876 64.4814C70.8077 62.7064 71.9133 60.8749 72.9998 58.991C74.099 57.085 75.1426 55.1761 76.1294 53.2739ZM69.0071 56.6882C67.3204 59.6127 65.5888 62.4044 63.8309 65.0397C60.6291 65.2686 57.3212 65.3866 53.9498 65.3866C50.592 65.3866 47.3258 65.2823 44.1807 65.0781C42.3519 62.4083 40.5826 59.6082 38.9067 56.7133C37.2352 53.8263 35.6972 50.9148 34.3032 48.0197C35.6968 45.1179 37.2312 42.2032 38.8931 39.3213L38.8927 39.3219C40.559 36.4324 42.3127 33.646 44.1246 30.9929C47.3335 30.7503 50.6241 30.6237 53.9496 30.6237C57.2901 30.6237 60.5851 30.7513 63.7931 30.9959C65.5773 33.6297 67.3191 36.407 68.9919 39.297C70.6838 42.2193 72.2379 45.1146 73.6434 47.9542C72.2422 50.8426 70.6915 53.7671 69.0071 56.6882ZM78.5158 5.21497C82.129 7.29863 83.5341 15.702 81.264 26.7215C81.1192 27.4246 80.9561 28.1408 80.779 28.8666C76.3025 27.8337 71.4415 27.065 66.3521 26.5876C63.3872 22.3655 60.3149 18.5272 57.2309 15.2042C58.0601 14.4066 58.888 13.646 59.7126 12.9283C67.6784 5.99589 75.1236 3.25884 78.5158 5.21497ZM53.9498 38.274C59.271 38.274 63.5849 42.5877 63.5849 47.9091C63.5849 53.2303 59.271 57.5442 53.9498 57.5442C48.6286 57.5442 44.3147 53.2303 44.3147 47.9091C44.3147 42.5877 48.6286 38.274 53.9498 38.274Z" fill="#00D8FF"/>
</svg>
