<svg width="104" height="96" viewBox="0 0 104 96" fill="none" xmlns="http://www.w3.org/2000/svg">
<path d="M103.686 20.3405C103.686 20.3405 69.2972 -4.96477 42.6942 0.87491L40.7476 1.52376C36.8545 2.82147 33.6102 4.76803 31.6637 7.36344L30.366 9.31L20.6332 26.1802L37.5034 29.4245C44.6407 33.9664 53.7247 35.913 62.1598 33.9664L92.007 39.8061L103.686 20.3405Z" fill="#76B3E1"/>
<path opacity="0.3" d="M103.686 20.3405C103.686 20.3405 69.2972 -4.96477 42.6942 0.87491L40.7476 1.52376C36.8545 2.82147 33.6102 4.76803 31.6637 7.36344L30.366 9.31L20.6332 26.1802L37.5034 29.4245C44.6407 33.9664 53.7247 35.913 62.1598 33.9664L92.007 39.8061L103.686 20.3405Z" fill="url(#paint0_linear_1817_210)"/>
<path d="M31.6635 20.3406L29.0681 20.9895C18.0376 24.2337 14.7934 34.6154 20.633 43.6993C27.1216 52.1344 40.7475 56.6764 51.778 53.4321L92.0069 39.8062C92.0069 39.8062 57.6177 14.5009 31.6635 20.3406Z" fill="#518AC8"/>
<path opacity="0.3" d="M31.6635 20.3406L29.0681 20.9895C18.0376 24.2337 14.7934 34.6154 20.633 43.6993C27.1216 52.1344 40.7475 56.6764 51.778 53.4321L92.0069 39.8062C92.0069 39.8062 57.6177 14.5009 31.6635 20.3406Z" fill="url(#paint1_linear_1817_210)"/>
<path d="M84.8696 49.5387C81.2369 45.0003 76.3322 41.6496 70.7836 39.9157C65.235 38.1817 59.2951 38.1435 53.7246 39.8059L13.4957 52.783L0.518677 75.4928L73.1902 87.821L86.1673 64.4623C88.7627 59.9203 88.1139 54.7295 84.8696 49.5387Z" fill="url(#paint2_linear_1817_210)"/>
<path d="M71.8925 72.2489C68.2598 67.7105 63.3551 64.3598 57.8065 62.6259C52.2579 60.8919 46.318 60.8537 40.7476 62.5161L0.518677 75.4932C0.518677 75.4932 34.9079 101.447 61.5109 94.9588L63.4574 94.3099C74.488 91.0656 78.3811 80.684 71.8925 72.2489Z" fill="url(#paint3_linear_1817_210)"/>
<defs>
<linearGradient id="paint0_linear_1817_210" x1="15.7668" y1="-0.422796" x2="96.549" y2="38.8328" gradientUnits="userSpaceOnUse">
<stop offset="0.1" stop-color="#76B3E1"/>
<stop offset="0.3" stop-color="#DCF2FD"/>
<stop offset="1" stop-color="#76B3E1"/>
</linearGradient>
<linearGradient id="paint1_linear_1817_210" x1="60.0833" y1="18.7834" x2="45.9383" y2="65.8901" gradientUnits="userSpaceOnUse">
<stop stop-color="#76B3E1"/>
<stop offset="0.5" stop-color="#4377BB"/>
<stop offset="1" stop-color="#1F3B77"/>
</linearGradient>
<linearGradient id="paint2_linear_1817_210" x1="9.86216" y1="39.2868" x2="91.5528" y2="94.8286" gradientUnits="userSpaceOnUse">
<stop stop-color="#315AA9"/>
<stop offset="0.5" stop-color="#518AC8"/>
<stop offset="1" stop-color="#315AA9"/>
</linearGradient>
<linearGradient id="paint3_linear_1817_210" x1="46.717" y1="45.9703" x2="13.7553" y2="166.852" gradientUnits="userSpaceOnUse">
<stop stop-color="#4377BB"/>
<stop offset="0.5" stop-color="#1A336B"/>
<stop offset="1" stop-color="#1A336B"/>
</linearGradient>
</defs>
</svg>
