<svg width="104" height="96" viewBox="0 0 104 96" fill="none" xmlns="http://www.w3.org/2000/svg">
<path d="M103.165 20.3405C103.165 20.3405 68.7761 -4.96477 42.1731 0.87491L40.2265 1.52376C36.3334 2.82147 33.0891 4.76803 31.1426 7.36344L29.8449 9.31L20.1121 26.1802L36.9822 29.4245C44.1196 33.9664 53.2036 35.913 61.6387 33.9664L91.4859 39.8061L103.165 20.3405Z" fill="#76B3E1"/>
<path opacity="0.3" d="M103.165 20.3405C103.165 20.3405 68.7761 -4.96477 42.1731 0.87491L40.2265 1.52376C36.3334 2.82147 33.0891 4.76803 31.1426 7.36344L29.8449 9.31L20.1121 26.1802L36.9822 29.4245C44.1196 33.9664 53.2036 35.913 61.6387 33.9664L91.4859 39.8061L103.165 20.3405Z" fill="url(#paint0_linear_1817_199)"/>
<path d="M31.1424 20.3405L28.547 20.9893C17.5165 24.2336 14.2722 34.6153 20.1119 43.6992C26.6005 52.1343 40.2264 56.6763 51.2569 53.432L91.4858 39.8061C91.4858 39.8061 57.0966 14.5008 31.1424 20.3405Z" fill="#518AC8"/>
<path opacity="0.3" d="M31.1424 20.3405L28.547 20.9893C17.5165 24.2336 14.2722 34.6153 20.1119 43.6992C26.6005 52.1343 40.2264 56.6763 51.2569 53.432L91.4858 39.8061C91.4858 39.8061 57.0966 14.5008 31.1424 20.3405Z" fill="url(#paint1_linear_1817_199)"/>
<path d="M84.3485 49.5388C80.7158 45.0004 75.811 41.6497 70.2624 39.9158C64.7139 38.1818 58.774 38.1436 53.2035 39.806L12.9746 52.7831L-0.00244141 75.4929L72.6691 87.8211L85.6462 64.4624C88.2416 59.9205 87.5927 54.7296 84.3485 49.5388Z" fill="url(#paint2_linear_1817_199)"/>
<path d="M71.3714 72.2488C67.7387 67.7104 62.834 64.3597 57.2854 62.6257C51.7368 60.8918 45.7969 60.8536 40.2265 62.516L-0.00244141 75.493C-0.00244141 75.493 34.3868 101.447 60.9898 94.9586L62.9363 94.3098C73.9668 91.0655 77.86 80.6839 71.3714 72.2488Z" fill="url(#paint3_linear_1817_199)"/>
<defs>
<linearGradient id="paint0_linear_1817_199" x1="15.2457" y1="-0.422796" x2="96.0279" y2="38.8328" gradientUnits="userSpaceOnUse">
<stop offset="0.1" stop-color="#76B3E1"/>
<stop offset="0.3" stop-color="#DCF2FD"/>
<stop offset="1" stop-color="#76B3E1"/>
</linearGradient>
<linearGradient id="paint1_linear_1817_199" x1="59.5622" y1="18.7832" x2="45.4172" y2="65.89" gradientUnits="userSpaceOnUse">
<stop stop-color="#76B3E1"/>
<stop offset="0.5" stop-color="#4377BB"/>
<stop offset="1" stop-color="#1F3B77"/>
</linearGradient>
<linearGradient id="paint2_linear_1817_199" x1="9.34105" y1="39.2869" x2="91.0317" y2="94.8288" gradientUnits="userSpaceOnUse">
<stop stop-color="#315AA9"/>
<stop offset="0.5" stop-color="#518AC8"/>
<stop offset="1" stop-color="#315AA9"/>
</linearGradient>
<linearGradient id="paint3_linear_1817_199" x1="46.1959" y1="45.9702" x2="13.2342" y2="166.852" gradientUnits="userSpaceOnUse">
<stop stop-color="#4377BB"/>
<stop offset="0.5" stop-color="#1A336B"/>
<stop offset="1" stop-color="#1A336B"/>
</linearGradient>
</defs>
</svg>
