<svg width="81" height="96" viewBox="0 0 81 96" fill="none" xmlns="http://www.w3.org/2000/svg">
<path d="M75.6685 12.7019C66.7542 -0.0567555 49.1485 -3.83847 36.4187 4.27207L14.0621 18.521C7.95533 22.3629 3.74905 28.5991 2.47475 35.7005C1.40829 41.6164 2.34564 47.719 5.13841 53.042C3.22473 55.945 1.91952 59.2058 1.30166 62.6274C0.0150424 69.8651 1.69806 77.316 5.97078 83.298C14.8869 96.0579 32.4927 99.8379 45.2206 91.7278L67.5772 77.4789C73.6844 73.6375 77.8908 67.401 79.1645 60.2994C80.2308 54.3836 79.2942 48.2811 76.5028 42.9574C78.416 40.0546 79.7207 36.7939 80.338 33.3725C81.6254 26.1348 79.9423 18.6835 75.6688 12.7019" fill="#FF3E00"/>
<path d="M34.2325 84.5119C27.024 86.3863 19.4118 83.5646 15.1665 77.4448C12.5958 73.8465 11.5831 69.3643 12.3572 65.0104C12.4869 64.3028 12.6655 63.605 12.8916 62.922L13.3127 61.6378L14.4585 62.4794C17.1045 64.4235 20.063 65.9017 23.2065 66.8502L24.0376 67.1023L23.9611 67.9319C23.8595 69.112 24.179 70.2899 24.863 71.2569C26.1406 73.1004 28.4326 73.951 30.6035 73.3876C31.0895 73.2577 31.5528 73.0541 31.9771 72.7839L54.3409 58.5324C55.4473 57.8357 56.2098 56.7059 56.442 55.4192C56.6738 54.1069 56.3688 52.7565 55.5954 51.6714C54.317 49.8275 52.0245 48.9765 49.8527 49.5395C49.3673 49.6694 48.9047 49.8729 48.4809 50.1428L39.947 55.5829C38.5438 56.4751 37.0123 57.1476 35.4058 57.5771C28.1975 59.4513 20.5853 56.6297 16.3401 50.5098C13.7693 46.9117 12.7566 42.4295 13.5308 38.0756C14.2971 33.804 16.8276 30.053 20.5014 27.7428L42.8632 13.4902C44.2671 12.5965 45.7996 11.9231 47.4074 11.4935C54.6158 9.61937 62.2279 12.441 66.4731 18.5607C69.0438 22.1589 70.0565 26.6411 69.2824 30.9951C69.1521 31.7026 68.9735 32.4003 68.748 33.0835L68.3268 34.3677L67.1817 33.5274C64.5359 31.5821 61.5771 30.1032 58.4331 29.1547L57.6019 28.9024L57.6785 28.0729C57.7792 26.8929 57.4597 25.7153 56.7765 24.7479C55.4989 22.9045 53.207 22.0538 51.0361 22.6173C50.5501 22.7472 50.0868 22.9508 49.6624 23.221L27.2987 37.4731C26.1924 38.1692 25.4303 39.2989 25.1991 40.5854C24.9659 41.8976 25.2705 43.2485 26.0442 44.3337C27.3226 46.1775 29.615 47.0285 31.7869 46.4655C32.2728 46.3353 32.7359 46.1318 33.1604 45.8618L41.6931 40.4238C43.0958 39.5304 44.6271 38.8573 46.2338 38.4279C53.4422 36.5537 61.0544 39.3754 65.2995 45.4952C67.8704 49.0934 68.8831 53.5756 68.1089 57.9295C67.342 62.2013 64.8117 65.9526 61.1383 68.2639L38.7764 82.5153C37.3725 83.409 35.84 84.0824 34.2322 84.5119" fill="white"/>
</svg>
