<svg width="96" height="96" viewBox="0 0 96 96" fill="none" xmlns="http://www.w3.org/2000/svg">
<path d="M95.5623 14.2091L50.5228 94.747C49.5927 96.4096 47.2039 96.4195 46.2597 94.7649L0.327484 14.2166C-0.700673 12.4132 0.840878 10.2291 2.88417 10.5941L47.9723 18.6534C48.2599 18.7049 48.5544 18.7044 48.8418 18.6521L92.9867 10.6057C95.0232 10.2345 96.5726 12.4022 95.5623 14.2091Z" fill="url(#paint0_linear_1817_200)"/>
<path d="M69.4498 0.0236621L36.1193 6.55452C35.853 6.60664 35.6115 6.74583 35.4329 6.95019C35.2543 7.15455 35.1487 7.41249 35.1327 7.68343L33.0825 42.3111C33.0345 43.1268 33.7834 43.7598 34.5792 43.5761L43.859 41.4348C44.7274 41.2343 45.5119 41.9992 45.3333 42.8721L42.5765 56.3729C42.3908 57.2811 43.2438 58.0584 44.1311 57.789L49.8627 56.0473C50.7514 55.7776 51.6051 56.5569 51.4173 57.4661L47.036 78.6726C46.7618 79.9989 48.5261 80.722 49.2619 79.5849L49.7534 78.8254L76.9129 24.6237C77.3676 23.7162 76.5839 22.6815 75.5865 22.8738L66.035 24.7173C65.137 24.8903 64.3734 24.0544 64.6267 23.1761L70.8611 1.56418C71.1147 0.684081 70.3484 -0.152496 69.4498 0.0236621Z" fill="url(#paint1_linear_1817_200)"/>
<defs>
<linearGradient id="paint0_linear_1817_200" x1="-0.794116" y1="7.71539" x2="55.2582" y2="83.8389" gradientUnits="userSpaceOnUse">
<stop stop-color="#41D1FF"/>
<stop offset="1" stop-color="#BD34FE"/>
</linearGradient>
<linearGradient id="paint1_linear_1817_200" x1="45.3819" y1="1.79653" x2="55.5215" y2="71.353" gradientUnits="userSpaceOnUse">
<stop stop-color="#FFEA83"/>
<stop offset="0.0833" stop-color="#FFDD35"/>
<stop offset="1" stop-color="#FFA800"/>
</linearGradient>
</defs>
</svg>
