<svg width="224" height="45" viewBox="0 0 224 45" fill="none" xmlns="http://www.w3.org/2000/svg">
<g clip-path="url(#clip0_733_894)">
<path fill-rule="evenodd" clip-rule="evenodd" d="M33.0008 29.8813H27.3634V0.0224609H33.0008V29.8813ZM16.1108 24.8985C15.4708 25.1983 14.7831 25.3477 14.0477 25.3477C13.3123 25.3477 12.6245 25.2323 11.9845 25.0012C11.3445 24.7692 10.786 24.4152 10.3102 23.9383C9.83338 23.4626 9.45826 22.8766 9.18701 22.1825C8.91467 21.4874 8.77796 20.6641 8.77796 19.7115C8.77796 18.7038 8.91467 17.8391 9.18701 17.1175C9.45826 16.3958 9.83338 15.8099 10.3102 15.3605C10.786 14.9112 11.3445 14.5849 11.9845 14.3804C12.6245 14.1769 13.3123 14.0741 14.0477 14.0741C14.7831 14.0741 15.4708 14.2246 16.1108 14.5234C16.7497 14.8233 17.3082 15.2249 17.785 15.7282C18.2608 16.2326 18.6433 16.8314 18.9284 17.5254C19.2145 18.2206 19.3576 18.9485 19.3576 19.7115C19.3576 20.5009 19.2145 21.2363 18.9284 21.9166C18.6433 22.598 18.2608 23.1903 17.785 23.6936C17.3082 24.198 16.7497 24.5996 16.1108 24.8985ZM18.7864 9.88745C17.5604 9.33009 16.2263 9.05029 14.783 9.05029C13.5029 9.05029 12.3723 9.19968 11.3933 9.49957C10.412 9.79945 9.52712 10.3028 8.73773 11.0106L7.92072 9.62142H3.10034V37.9692H8.73773V28.1251C9.36395 28.7789 10.235 29.3172 11.3519 29.739C12.4677 30.1607 13.6121 30.3726 14.783 30.3726C16.2263 30.3726 17.5604 30.0929 18.7864 29.5344C20.0113 28.9771 21.0668 28.2141 21.9516 27.2477C22.8364 26.2803 23.5305 25.1506 24.0349 23.8568C24.5382 22.5641 24.7904 21.1812 24.7904 19.7115C24.7904 18.2407 24.5382 16.8589 24.0349 15.5651C23.5305 14.2722 22.8364 13.1416 21.9516 12.1752C21.0668 11.2088 20.0113 10.4459 18.7864 9.88745ZM49.2978 9.62181H54.9352V29.8824H50.1148L49.2978 28.33C48.6441 28.7931 47.9023 29.1671 47.0715 29.4533C46.2407 29.7394 45.3485 29.8824 44.3959 29.8824C43.6605 29.8824 42.8233 29.7733 41.8835 29.555C40.9446 29.3377 40.0662 28.9287 39.2492 28.33C38.4322 27.7313 37.7444 26.9005 37.187 25.8377C36.6286 24.776 36.3489 23.4016 36.3489 21.7125V9.62181H41.9863V21.4762C41.9863 22.1014 42.088 22.6312 42.2935 23.0656C42.4991 23.5001 42.7735 23.8466 43.1147 24.1041C43.457 24.3626 43.848 24.5523 44.2867 24.6742C44.7243 24.7971 45.1758 24.8575 45.642 24.8575C45.9981 24.8575 46.3881 24.7971 46.813 24.6742C47.2368 24.5523 47.6341 24.3563 48.004 24.0839C48.3738 23.8117 48.6822 23.4588 48.928 23.0243C49.175 22.5899 49.2978 22.0738 49.2978 21.4762V9.62181ZM104.164 30.3608V10.1273H99.3094L98.7383 12.1261C98.031 11.2287 97.1338 10.576 96.046 10.168C94.9582 9.76015 93.7615 9.55613 92.4559 9.55613C91.0148 9.55613 89.6819 9.8417 88.4579 10.4128C87.262 10.9567 86.2147 11.7182 85.3175 12.6973C84.4196 13.6491 83.713 14.7777 83.1956 16.0831C82.7062 17.3613 82.4618 18.7347 82.4618 20.2033C82.4618 21.6718 82.7062 23.0588 83.1956 24.3641C83.713 25.6423 84.4196 26.771 85.3175 27.75C86.2147 28.7018 87.262 29.4634 88.4579 30.0344C89.6819 30.5783 91.0148 30.8503 92.4559 30.8503C93.6526 30.8503 94.7948 30.6736 95.8826 30.32C96.9977 29.9664 97.9493 29.2593 98.7383 28.1987L99.3094 30.3608H104.164ZM98.0855 17.6333C98.385 18.3403 98.5344 19.2242 98.5344 20.2848C98.5072 22.1613 97.9765 23.5619 96.9432 24.4865C95.9371 25.384 94.6999 25.8327 93.2309 25.8327C92.4971 25.8327 91.803 25.6832 91.151 25.384C90.5254 25.0848 89.9675 24.6905 89.478 24.201C88.9886 23.6843 88.6081 23.086 88.3358 22.4061C88.0642 21.7262 87.928 20.9919 87.928 20.2033C87.928 19.4417 88.0642 18.7211 88.3358 18.0412C88.6081 17.3341 88.9886 16.7358 89.478 16.2463C89.9675 15.7296 90.5254 15.3217 91.151 15.0225C91.803 14.7233 92.4971 14.5738 93.2309 14.5738C93.9654 14.5738 94.6454 14.6825 95.271 14.9001C95.9239 15.0905 96.481 15.4168 96.9432 15.8791C97.4326 16.3143 97.8139 16.899 98.0855 17.6333ZM128.493 10.1273H123.679L122.864 11.6774C122.129 10.9431 121.245 10.4128 120.212 10.0865C119.178 9.73292 118.023 9.55613 116.744 9.55613C115.384 9.55613 114.12 9.82816 112.95 10.3721C111.808 10.8887 110.816 11.6094 109.973 12.5341C109.13 13.4316 108.463 14.4921 107.974 15.7159C107.511 16.9397 107.28 18.2452 107.28 19.6321C107.28 21.0191 107.511 22.3381 107.974 23.5891C108.463 24.8129 109.13 25.8871 109.973 26.8117C110.816 27.7092 111.808 28.4299 112.95 28.9738C114.12 29.4905 115.384 29.7489 116.744 29.7489C117.968 29.7489 119.097 29.5449 120.13 29.137C121.163 28.7018 122.075 28.1308 122.864 27.4236V27.8316C122.864 28.9466 122.687 29.8849 122.333 30.6463C122.007 31.435 121.545 32.0877 120.946 32.6044C120.375 33.1212 119.695 33.4883 118.907 33.7058C118.118 33.9506 117.274 34.0729 116.377 34.0729C115.697 34.0729 115.018 34.005 114.338 33.869C113.685 33.7602 113.059 33.5971 112.461 33.3795C111.89 33.1619 111.373 32.9036 110.911 32.6044C110.476 32.3052 110.136 31.9653 109.891 31.5846V36.8469C110.871 37.418 111.972 37.8668 113.196 38.1931C114.419 38.5194 115.724 38.6826 117.112 38.6826C118.743 38.6826 120.293 38.465 121.762 38.0299C123.258 37.5948 124.604 36.7925 125.801 35.6232C126.453 34.9704 126.956 34.2634 127.31 33.5019C127.691 32.7404 127.962 31.8701 128.126 30.8911C128.289 29.9393 128.384 28.865 128.411 27.6684C128.466 26.4446 128.493 25.0577 128.493 23.5075V10.1273ZM120.13 24.2826C119.504 24.5818 118.757 24.7313 117.887 24.7313C117.179 24.7313 116.527 24.6089 115.928 24.3641C115.33 24.0922 114.8 23.7251 114.338 23.2627C113.903 22.8004 113.549 22.2701 113.277 21.6718C113.032 21.0463 112.91 20.38 112.91 19.6729C112.91 18.9659 113.032 18.3132 113.277 17.7148C113.549 17.0894 113.903 16.5454 114.338 16.0831C114.8 15.6208 115.33 15.2537 115.928 14.9817C116.527 14.7098 117.179 14.5738 117.887 14.5738C118.729 14.5738 119.464 14.7233 120.09 15.0225C120.715 15.3217 121.232 15.7159 121.64 16.2055C122.047 16.6678 122.347 17.2117 122.537 17.8372C122.755 18.4355 122.864 19.0474 122.864 19.6729C122.864 20.2441 122.769 20.8287 122.578 21.427C122.387 22.0254 122.089 22.5693 121.681 23.0588C121.272 23.5483 120.756 23.9562 120.13 24.2826ZM141.986 9.55613C143.509 9.55613 144.896 9.86893 146.148 10.4945C147.398 11.0927 148.473 11.895 149.37 12.9012C150.268 13.8802 150.961 15.0225 151.45 16.3278C151.94 17.606 152.185 18.9251 152.185 20.2848C152.185 21.1007 152.076 21.971 151.858 22.8956H137.417C137.961 23.8202 138.736 24.6089 139.743 25.2616C140.749 25.8871 141.837 26.1998 143.006 26.1998C144.176 26.1998 145.195 26.1047 146.066 25.9143C146.963 25.7239 147.807 25.4792 148.595 25.18L150.472 28.6474C149.465 29.3546 148.309 29.8985 147.004 30.2792C145.726 30.6599 144.353 30.8503 142.883 30.8503C141.279 30.8503 139.783 30.5783 138.396 30.0344C137.01 29.4634 135.8 28.7018 134.766 27.75C133.732 26.7982 132.917 25.6696 132.318 24.3641C131.72 23.0588 131.421 21.6718 131.421 20.2033C131.421 18.7618 131.693 17.4021 132.237 16.1239C132.78 14.8185 133.528 13.6899 134.481 12.738C135.46 11.759 136.588 10.984 137.866 10.4128C139.145 9.8417 140.518 9.55613 141.986 9.55613ZM146.596 18.5307C146.27 17.3613 145.685 16.4095 144.842 15.6752C143.998 14.9409 143.047 14.5738 141.986 14.5738C140.898 14.5738 139.906 14.9409 139.008 15.6752C138.138 16.4095 137.54 17.3613 137.213 18.5307H146.596ZM169.306 10.4536C168.382 10.236 167.539 10.1273 166.778 10.1273C165.826 10.1273 164.942 10.2768 164.126 10.576C163.31 10.8479 162.576 11.2151 161.923 11.6774L161.107 10.1273H156.293V30.3608H161.923V18.4899C161.923 17.8916 162.045 17.3749 162.29 16.9397C162.535 16.5046 162.834 16.1511 163.187 15.8791C163.569 15.6072 163.963 15.4168 164.371 15.3081C164.806 15.172 165.2 15.104 165.554 15.104C165.989 15.104 166.424 15.172 166.859 15.3081C167.294 15.4168 167.675 15.6072 168.002 15.8791C168.355 16.1239 168.627 16.4639 168.817 16.899C169.035 17.3341 169.144 17.8644 169.144 18.4899V30.3608H174.814V18.2859C174.814 16.5998 174.528 15.2264 173.957 14.1658C173.413 13.1052 172.733 12.2757 171.918 11.6774C171.102 11.0791 170.232 10.6712 169.306 10.4536ZM188.277 14.5738C187.597 14.5738 186.957 14.7369 186.359 15.0633C185.761 15.3624 185.23 15.7839 184.768 16.3278C184.333 16.8446 183.979 17.4565 183.708 18.1635C183.463 18.8707 183.34 19.6321 183.34 20.448C183.34 21.2638 183.463 22.0118 183.708 22.6917C183.979 23.3443 184.333 23.9155 184.768 24.405C185.23 24.8672 185.761 25.2344 186.359 25.5064C186.957 25.7783 187.597 25.9143 188.277 25.9143C189.119 25.9143 189.936 25.7239 190.724 25.3432C191.54 24.9353 192.233 24.3777 192.804 23.6707L196.272 27.0973C195.32 28.2396 194.151 29.1506 192.763 29.8305C191.377 30.5104 189.881 30.8503 188.277 30.8503C186.808 30.8503 185.434 30.5783 184.156 30.0344C182.878 29.4634 181.763 28.7018 180.811 27.75C179.859 26.771 179.098 25.6423 178.527 24.3641C177.983 23.0588 177.711 21.6718 177.711 20.2033C177.711 18.7347 177.983 17.3613 178.527 16.0831C179.098 14.7777 179.859 13.6491 180.811 12.6973C181.763 11.7182 182.878 10.9567 184.156 10.4128C185.434 9.8417 186.808 9.55613 188.277 9.55613C189.936 9.55613 191.472 9.90971 192.886 10.6168C194.3 11.3239 195.497 12.2893 196.476 13.5131L192.559 16.5319C191.771 15.7976 191.051 15.2944 190.398 15.0225C189.772 14.7233 189.065 14.5738 188.277 14.5738ZM221.1 10.1273H214.941L210.168 20.6928L204.906 10.1273H198.623L207.19 27.3013L202.172 38.4379H208.332L221.1 10.1273Z" fill="#F6F6F8"/>
<path fill-rule="evenodd" clip-rule="evenodd" d="M68.2157 15.8895L64.9443 19.1934L57.3988 11.573L60.6702 8.26904L68.2157 15.8895Z" fill="#FFDA00"/>
<path fill-rule="evenodd" clip-rule="evenodd" d="M69.9288 15.8895L73.2002 19.1934L80.7454 11.573L77.4744 8.26904L69.9288 15.8895Z" fill="#FFDA00"/>
<path fill-rule="evenodd" clip-rule="evenodd" d="M69.9288 24.2106L73.2002 20.9066L80.7454 28.527L77.4743 31.8309L69.9288 24.2106Z" fill="#FFDA00"/>
<path fill-rule="evenodd" clip-rule="evenodd" d="M68.2157 24.2106L64.9443 20.9066L57.3988 28.527L60.6701 31.8309L68.2157 24.2106Z" fill="#FFDA00"/>
</g>
<defs>
<clipPath id="clip0_733_894">
<rect width="224" height="44.955" fill="white" transform="translate(0 0.0224609)"/>
</clipPath>
</defs>
</svg>
