<svg width="161" height="53" viewBox="0 0 161 53" fill="none" xmlns="http://www.w3.org/2000/svg">
<g clip-path="url(#clip0_2298_905)">
<path d="M26.689 52.2855C40.9088 52.2855 52.4362 40.7581 52.4362 26.5383C52.4362 12.3186 40.9088 0.791138 26.689 0.791138C12.4692 0.791138 0.941772 12.3186 0.941772 26.5383C0.941772 40.7581 12.4692 52.2855 26.689 52.2855Z" fill="#FF4500"/>
<path d="M43.8602 26.5383C43.7834 24.4647 42.0426 22.8455 39.9626 22.9159C39.041 22.9479 38.1642 23.3255 37.4986 23.9591C34.5674 21.9623 31.1242 20.8679 27.585 20.7911L29.2554 12.7591L34.7658 13.9175C34.9194 15.3319 36.1866 16.3559 37.601 16.2023C39.0154 16.0487 40.0394 14.7815 39.8858 13.3671C39.7322 11.9527 38.465 10.9287 37.0506 11.0823C36.2378 11.1655 35.5082 11.6391 35.105 12.3431L28.7946 11.0823C28.3658 10.9863 27.937 11.2551 27.841 11.6903C27.841 11.6967 27.841 11.6967 27.841 11.7031L25.9402 20.6375C22.3562 20.6951 18.8682 21.7959 15.8986 23.8055C14.3882 22.3847 12.0074 22.4551 10.5866 23.9719C9.1658 25.4823 9.2362 27.8631 10.753 29.2839C11.0474 29.5591 11.3866 29.7959 11.7642 29.9623C11.7386 30.3399 11.7386 30.7175 11.7642 31.0951C11.7642 36.8615 18.4842 41.5527 26.7722 41.5527C35.0602 41.5527 41.7802 36.8679 41.7802 31.0951C41.8058 30.7175 41.8058 30.3399 41.7802 29.9623C43.073 29.3159 43.8858 27.9847 43.8602 26.5383ZM18.113 29.1175C18.113 27.6967 19.2714 26.5383 20.6922 26.5383C22.113 26.5383 23.2714 27.6967 23.2714 29.1175C23.2714 30.5383 22.113 31.6967 20.6922 31.6967C19.265 31.6839 18.113 30.5383 18.113 29.1175ZM33.0698 36.1959C31.2394 37.5719 28.9994 38.2759 26.7082 38.1799C24.417 38.2759 22.177 37.5719 20.3466 36.1959C20.1034 35.9015 20.1482 35.4599 20.4426 35.2167C20.6986 35.0055 21.0634 35.0055 21.3258 35.2167C22.8746 36.3495 24.7626 36.9255 26.6826 36.8359C28.6026 36.9383 30.497 36.3879 32.065 35.2679C32.3466 34.9927 32.8074 34.9991 33.0826 35.2807C33.3578 35.5623 33.3514 36.0231 33.0698 36.2983V36.1959ZM32.609 31.7863C31.1882 31.7863 30.0298 30.6279 30.0298 29.2071C30.0298 27.7863 31.1882 26.6279 32.609 26.6279C34.0298 26.6279 35.1882 27.7863 35.1882 29.2071C35.2458 30.6279 34.1386 31.8247 32.7178 31.8823C32.673 31.8823 32.6346 31.8823 32.5898 31.8823L32.609 31.7863Z" fill="white"/>
<path d="M144.59 18.6857C146.527 18.6857 148.097 17.1154 148.097 15.1785C148.097 13.2415 146.527 11.6713 144.59 11.6713C142.653 11.6713 141.083 13.2415 141.083 15.1785C141.083 17.1154 142.653 18.6857 144.59 18.6857Z" fill="#FF4500"/>
<path d="M94.8874 30.1032C96.2442 30.1992 97.4218 29.1752 97.5242 27.812C97.5306 27.7352 97.5306 27.6456 97.5306 27.5624C97.5114 27.0888 97.4538 26.6088 97.3578 26.1416C96.5258 21.7 92.7306 18.4296 88.2186 18.2504C83.0794 18.2504 78.785 22.9736 78.785 28.772C78.785 34.5704 83.009 39.3 88.2122 39.3C90.9706 39.4088 93.6458 38.2952 95.5018 36.2536C96.2634 35.4216 96.1994 34.1352 95.3674 33.3736C95.3034 33.316 95.2458 33.2648 95.1818 33.22C94.3498 32.7016 93.2682 32.8104 92.5642 33.4888C91.4058 34.6408 89.8506 35.3 88.2122 35.3512C85.3834 35.1272 83.1178 32.9128 82.8362 30.0776H94.8106L94.8874 30.1032ZM88.193 22.212C90.6826 22.3784 92.7754 24.1576 93.3322 26.596H83.0666C83.617 24.1512 85.697 22.372 88.193 22.212Z" fill="#F6F6F8"/>
<path d="M78.9898 20.292C78.9898 19.3064 78.2602 18.468 77.281 18.3464C74.6378 17.9048 71.9498 18.884 70.2154 20.932V20.676C70.2154 19.5816 69.3322 18.6984 68.2378 18.6984C67.1434 18.6984 66.2602 19.5816 66.2602 20.676V36.868C66.2346 37.9304 67.0474 38.8327 68.1098 38.9223C69.1914 38.9991 70.1386 38.1799 70.209 37.0984C70.2154 37.0215 70.2154 36.9448 70.209 36.868V28.5608C70.0362 25.2456 72.577 22.4232 75.8922 22.244C76.1866 22.2248 76.4874 22.2312 76.7818 22.2632H77.1786C78.2026 22.1736 78.9898 21.3224 78.9898 20.292Z" fill="#F6F6F8"/>
<path d="M146.561 22.4168C146.561 21.3224 145.678 20.4392 144.583 20.4392C143.489 20.4392 142.606 21.3224 142.606 22.4168V36.8616C142.606 37.956 143.489 38.8392 144.583 38.8392C145.678 38.8392 146.561 37.956 146.561 36.8616V22.4168Z" fill="#F6F6F8"/>
<path d="M117.377 11.4408C117.377 10.3528 116.494 9.4696 115.406 9.4696C114.318 9.4696 113.435 10.3528 113.435 11.4408V20.2728C112.103 18.9288 110.273 18.1992 108.385 18.2504C103.246 18.2504 98.9514 22.9736 98.9514 28.772C98.9514 34.5704 103.182 39.3 108.385 39.3C110.305 39.3576 112.161 38.6216 113.524 37.2584C113.831 38.3016 114.926 38.8968 115.969 38.5896C116.756 38.3592 117.319 37.668 117.371 36.8424L117.377 11.4408ZM108.372 35.4024C105.345 35.4024 102.881 32.4584 102.881 28.8168C102.881 25.1752 105.326 22.2312 108.372 22.2312C111.419 22.2312 113.863 25.1752 113.863 28.8168C113.863 32.4584 111.419 35.3704 108.385 35.3704L108.372 35.4024Z" fill="#F6F6F8"/>
<path d="M137.998 11.4408C137.998 10.3528 137.115 9.4696 136.027 9.4696C134.939 9.4696 134.055 10.3528 134.055 11.4408V20.2728C132.724 18.9288 130.894 18.1992 129.006 18.2504C123.867 18.2504 119.572 22.9736 119.572 28.772C119.572 34.5704 123.803 39.3 129.006 39.3C130.926 39.3576 132.782 38.6216 134.145 37.2584C134.452 38.3016 135.547 38.8968 136.59 38.5896C137.377 38.3592 137.94 37.668 137.991 36.8424L137.998 11.4408ZM128.999 35.4024C125.972 35.4024 123.508 32.4584 123.508 28.8168C123.508 25.1752 125.953 22.2312 128.999 22.2312C132.046 22.2312 134.491 25.1752 134.491 28.8168C134.491 32.4584 132.046 35.3704 129.012 35.3704L128.999 35.4024Z" fill="#F6F6F8"/>
<path d="M156.807 36.8552V22.212H158.516C159.463 22.2696 160.27 21.5464 160.327 20.6056C160.327 20.5736 160.334 20.5352 160.334 20.4968C160.417 19.556 159.719 18.724 158.785 18.6408C158.734 18.6344 158.676 18.6344 158.625 18.6344H156.814V15.9144C156.827 14.8584 156.02 13.9688 154.964 13.8728C153.883 13.796 152.942 14.6152 152.865 15.6968C152.859 15.7416 152.859 15.7928 152.859 15.8376V18.6792H151.143C150.196 18.6216 149.39 19.3448 149.332 20.2856C149.332 20.3176 149.326 20.356 149.326 20.3944C149.243 21.3352 149.94 22.1672 150.875 22.2504C150.926 22.2568 150.983 22.2568 151.035 22.2568H152.743V36.8616C152.743 37.9496 153.627 38.8328 154.715 38.8328C155.803 38.9032 156.731 38.0712 156.801 36.9832C156.807 36.9448 156.807 36.9 156.807 36.8552Z" fill="#F6F6F8"/>
</g>
<defs>
<clipPath id="clip0_2298_905">
<rect width="160" height="51.84" fill="white" transform="translate(0.666626 0.579956)"/>
</clipPath>
</defs>
</svg>
