<svg width="211" height="48" viewBox="0 0 211 48" fill="none" xmlns="http://www.w3.org/2000/svg">
<path d="M7.99641 16.8312C7.99641 20.1415 8.70577 22.5705 10.1245 24.1182C11.5862 25.6229 13.4563 26.3753 15.7349 26.3753C16.9816 26.3753 18.1424 26.2033 19.2172 25.8594C20.335 25.5154 21.2378 25.107 21.9256 24.6341V7.15808C21.3668 7.0291 20.6789 6.92162 19.8621 6.83564C19.0452 6.70667 18.0134 6.64218 16.7667 6.64218C13.9292 6.64218 11.7582 7.58799 10.2535 9.47962C8.74876 11.3282 7.99641 13.7788 7.99641 16.8312ZM29.7286 31.1473C29.7286 36.5212 28.3529 40.455 25.6014 42.9485C22.893 45.442 18.7228 46.6887 13.0909 46.6887C11.0273 46.6887 9.00671 46.5168 7.0291 46.1728C5.09449 45.8289 3.33184 45.3775 1.74115 44.8186L3.15987 38.1764C4.49261 38.7353 5.99731 39.1867 7.67397 39.5306C9.39363 39.8746 11.2423 40.0465 13.2199 40.0465C16.3582 40.0465 18.5938 39.4017 19.9265 38.1119C21.2593 36.8222 21.9256 34.9091 21.9256 32.3726V31.0828C21.1518 31.4697 20.12 31.8567 18.8303 32.2436C17.5835 32.6305 16.1433 32.824 14.5096 32.824C12.36 32.824 10.3824 32.48 8.5768 31.7922C6.81415 31.1043 5.28795 30.094 3.99821 28.7613C2.75145 27.4286 1.76265 25.7734 1.0318 23.7958C0.343932 21.7752 0 19.4536 0 16.8312C0 14.3806 0.365427 12.1236 1.09628 10.06C1.87013 7.99641 2.96641 6.23376 4.38513 4.77205C5.84684 3.31034 7.60949 2.17107 9.67308 1.35423C11.7367 0.537391 14.0797 0.128973 16.7022 0.128973C19.2387 0.128973 21.6462 0.322434 23.9247 0.709358C26.2033 1.09628 28.1379 1.5047 29.7286 1.93461V31.1473Z" fill="white"/>
<path d="M67.3206 33.5333C65.8159 33.9203 63.8598 34.3072 61.4523 34.6941C59.0447 35.124 56.4008 35.339 53.5203 35.339C50.8119 35.339 48.5333 34.9521 46.6847 34.1782C44.8791 33.4044 43.4173 32.3296 42.2996 30.9539C41.2248 29.5781 40.4509 27.9444 39.978 26.0528C39.5051 24.1182 39.2687 22.0116 39.2687 19.7331V0.838334H47.0716V18.5078C47.0716 22.1191 47.5875 24.6986 48.6193 26.2463C49.6941 27.794 51.5427 28.5678 54.1652 28.5678C55.111 28.5678 56.0998 28.5248 57.1316 28.4389C58.2064 28.3529 59.0017 28.2454 59.5176 28.1164V0.838334H67.3206V33.5333Z" fill="white"/>
<path d="M85.8934 34.5651C83.7438 30.137 81.5298 25.064 79.2512 19.3462C77.0157 13.5853 74.9736 7.41603 73.1249 0.838334H81.4438C81.9167 2.72996 82.4541 4.77205 83.056 6.96461C83.7008 9.11419 84.3672 11.2853 85.0551 13.4778C85.7859 15.6274 86.5168 17.734 87.2476 19.7976C88.0215 21.8182 88.7308 23.6453 89.3757 25.279C90.0206 23.6453 90.7085 21.8182 91.4393 19.7976C92.1702 17.734 92.8795 15.6274 93.5674 13.4778C94.2982 11.2853 94.9861 9.11419 95.631 6.96461C96.2758 4.77205 96.8347 2.72996 97.3076 0.838334H105.369C103.52 7.41603 101.456 13.5853 99.1778 19.3462C96.9422 25.064 94.7496 30.137 92.6001 34.5651H85.8934Z" fill="white"/>
<path d="M123.062 29.0837C125.469 29.0837 127.296 28.9547 128.543 28.6968V20.0555C128.113 19.9265 127.49 19.7976 126.673 19.6686C125.856 19.5396 124.953 19.4751 123.965 19.4751C123.105 19.4751 122.223 19.5396 121.321 19.6686C120.461 19.7976 119.665 20.034 118.935 20.378C118.247 20.7219 117.688 21.2163 117.258 21.8612C116.828 22.463 116.613 23.2369 116.613 24.1827C116.613 26.0313 117.193 27.3211 118.354 28.0519C119.515 28.7398 121.084 29.0837 123.062 29.0837ZM122.417 0C124.996 0 127.167 0.322436 128.93 0.967307C130.693 1.61218 132.09 2.515 133.122 3.67577C134.196 4.83654 134.949 6.25526 135.379 7.93192C135.852 9.5656 136.088 11.3712 136.088 13.3488V33.7913C134.884 34.0492 133.057 34.3502 130.607 34.6941C128.199 35.081 125.469 35.2745 122.417 35.2745C120.396 35.2745 118.548 35.081 116.871 34.6941C115.194 34.3072 113.754 33.6838 112.55 32.824C111.39 31.9642 110.465 30.8464 109.777 29.4706C109.132 28.0949 108.81 26.3968 108.81 24.3762C108.81 22.4415 109.175 20.8079 109.906 19.4751C110.68 18.1424 111.712 17.0676 113.002 16.2508C114.291 15.3909 115.775 14.7891 117.451 14.4451C119.171 14.0582 120.955 13.8647 122.804 13.8647C123.664 13.8647 124.566 13.9292 125.512 14.0582C126.458 14.1442 127.468 14.3162 128.543 14.5741V13.2844C128.543 12.3815 128.436 11.5217 128.221 10.7049C128.006 9.88803 127.619 9.17868 127.06 8.5768C126.544 7.93192 125.835 7.43752 124.932 7.09359C124.072 6.74966 122.976 6.57769 121.643 6.57769C119.837 6.57769 118.182 6.70667 116.677 6.96461C115.173 7.22256 113.948 7.5235 113.002 7.86744L112.034 1.54769C113.023 1.20376 114.463 0.859828 116.355 0.515899C118.247 0.171966 120.267 0 122.417 0Z" fill="white"/>
<path d="M164.861 16.8312C164.861 13.3059 164.41 10.7694 163.507 9.22167C162.647 7.63098 161.013 6.83564 158.606 6.83564C157.746 6.83564 156.8 6.90013 155.768 7.0291C154.736 7.15808 153.963 7.26556 153.447 7.35154V34.5651H145.644V1.93461C147.148 1.5047 149.105 1.09628 151.512 0.709358C153.963 0.322434 156.542 0.128973 159.251 0.128973C161.572 0.128973 163.464 0.429913 164.925 1.03179C166.43 1.63367 167.677 2.42902 168.666 3.41782C169.139 3.07389 169.741 2.70846 170.471 2.32154C171.202 1.93462 172.019 1.59068 172.922 1.28974C173.825 0.94581 174.771 0.666365 175.759 0.451408C176.791 0.236451 177.823 0.128973 178.855 0.128973C181.477 0.128973 183.627 0.515896 185.303 1.28974C187.023 2.0206 188.356 3.07389 189.302 4.44962C190.29 5.78235 190.957 7.41603 191.301 9.35064C191.688 11.2423 191.881 13.3274 191.881 15.6059V34.5651H184.078V16.8312C184.078 13.3059 183.648 10.7694 182.788 9.22167C181.929 7.63098 180.273 6.83564 177.823 6.83564C176.576 6.83564 175.394 7.0506 174.276 7.48051C173.158 7.86744 172.32 8.25436 171.761 8.64128C172.105 9.71607 172.341 10.8553 172.47 12.0591C172.599 13.2629 172.664 14.5526 172.664 15.9283V34.5651H164.861V16.8312Z" fill="white"/>
<path d="M210.211 30.309C210.211 31.8137 209.695 33.0389 208.663 33.9847C207.674 34.9306 206.47 35.4035 205.052 35.4035C203.59 35.4035 202.365 34.9306 201.376 33.9847C200.387 33.0389 199.893 31.8137 199.893 30.309C199.893 28.8043 200.387 27.579 201.376 26.6332C202.365 25.6444 203.59 25.15 205.052 25.15C206.47 25.15 207.674 25.6444 208.663 26.6332C209.695 27.579 210.211 28.8043 210.211 30.309Z" fill="white"/>
<path d="M62.7354 41.9563C62.7354 41.3946 63.1907 40.9392 63.7525 40.9392H208.518C209.623 40.9392 210.518 41.8346 210.518 42.9392V45.9303C210.518 47.0617 209.581 47.9679 208.45 47.9292L63.7177 42.9728C63.1698 42.9541 62.7354 42.5045 62.7354 41.9563Z" fill="white"/>
</svg>
