<svg width="110" height="24" viewBox="0 0 145 32" fill="none" xmlns="http://www.w3.org/2000/svg">
<path d="M5.48066 11.2208C5.48066 13.4277 5.96685 15.047 6.93923 16.0788C7.94107 17.0819 9.22283 17.5835 10.7845 17.5835C11.639 17.5835 12.4346 17.4689 13.1713 17.2396C13.9374 17.0103 14.5562 16.738 15.0276 16.4227V4.77205C14.6446 4.68607 14.1731 4.61442 13.6133 4.5571C13.0534 4.47111 12.3462 4.42812 11.4917 4.42812C9.54696 4.42812 8.05893 5.05866 7.02762 6.31974C5.99632 7.55217 5.48066 9.18584 5.48066 11.2208ZM20.3757 20.7649C20.3757 24.3475 19.4328 26.97 17.547 28.6323C15.6906 30.2946 12.8324 31.1258 8.97237 31.1258C7.55801 31.1258 6.17311 31.0112 4.81768 30.7819C3.49171 30.5526 2.28361 30.2517 1.19337 29.8791L2.16575 25.4509C3.07919 25.8235 4.1105 26.1245 5.25967 26.3538C6.4383 26.5831 7.70534 26.6977 9.06077 26.6977C11.2118 26.6977 12.744 26.2678 13.6575 25.408C14.5709 24.5481 15.0276 23.2727 15.0276 21.5817V20.7219C14.4972 20.9798 13.7901 21.2378 12.9061 21.4957C12.0516 21.7537 11.0645 21.8827 9.94475 21.8827C8.47145 21.8827 7.11602 21.6534 5.87845 21.1948C4.67035 20.7362 3.62431 20.0627 2.74033 19.1742C1.88582 18.2857 1.2081 17.1823 0.707182 15.8638C0.235727 14.5168 0 12.9691 0 11.2208C0 9.5871 0.25046 8.08239 0.751381 6.70667C1.28177 5.33094 2.03315 4.15584 3.00552 3.18137C4.00737 2.20689 5.21547 1.44738 6.62983 0.902819C8.0442 0.358261 9.65009 0.0859818 11.4475 0.0859818C13.186 0.0859818 14.8361 0.214956 16.3978 0.472905C17.9595 0.730854 19.2854 1.00313 20.3757 1.28974V20.7649Z" fill="currentColor"/>
<path d="M46.1409 22.3556C45.1096 22.6135 43.7689 22.8715 42.1188 23.1294C40.4687 23.416 38.6565 23.5593 36.6823 23.5593C34.826 23.5593 33.2643 23.3014 31.9972 22.7855C30.7597 22.2696 29.7578 21.5531 28.9917 20.6359C28.2551 19.7188 27.7247 18.6296 27.4005 17.3685C27.0764 16.0788 26.9144 14.6744 26.9144 13.1554V0.558889H32.2624V12.3385C32.2624 14.7461 32.616 16.4657 33.3232 17.4975C34.0598 18.5293 35.3269 19.0452 37.1243 19.0452C37.7726 19.0452 38.4503 19.0166 39.1575 18.9592C39.8941 18.9019 40.4392 18.8303 40.7928 18.7443V0.558889H46.1409V22.3556Z" fill="currentColor"/>
<path d="M58.8705 23.0434C57.3972 20.0913 55.8797 16.7093 54.318 12.8974C52.7858 9.05687 51.3862 4.94402 50.1191 0.558889H55.8208C56.1449 1.81997 56.5132 3.18137 56.9257 4.64308C57.3677 6.07613 57.8245 7.5235 58.2959 8.98521C58.7968 10.4183 59.2978 11.8227 59.7987 13.1984C60.3291 14.5454 60.8152 15.7635 61.2572 16.8527C61.6992 15.7635 62.1707 14.5454 62.6716 13.1984C63.1725 11.8227 63.6587 10.4183 64.1302 8.98521C64.6311 7.5235 65.1025 6.07613 65.5445 4.64308C65.9865 3.18137 66.3696 1.81997 66.6937 0.558889H72.2186C70.9515 4.94402 69.5372 9.05687 67.9755 12.8974C66.4432 16.7093 64.9405 20.0913 63.4672 23.0434H58.8705Z" fill="currentColor"/>
<path d="M84.3453 19.3891C85.9954 19.3891 87.2477 19.3032 88.1022 19.1312V13.3703C87.8075 13.2844 87.3803 13.1984 86.8204 13.1124C86.2606 13.0264 85.6418 12.9834 84.9641 12.9834C84.3748 12.9834 83.7707 13.0264 83.1519 13.1124C82.5626 13.1984 82.0175 13.356 81.5166 13.5853C81.0451 13.8146 80.662 14.1442 80.3674 14.5741C80.0727 14.9754 79.9254 15.4913 79.9254 16.1218C79.9254 17.3542 80.3232 18.214 81.1188 18.7013C81.9143 19.1599 82.9899 19.3891 84.3453 19.3891ZM83.9033 0C85.6713 0 87.1593 0.214957 88.3674 0.644871C89.5755 1.07479 90.5331 1.67667 91.2403 2.45051C91.977 3.22436 92.4926 4.17017 92.7873 5.28795C93.1114 6.37707 93.2735 7.58083 93.2735 8.89923V22.5275C92.4484 22.6995 91.1961 22.9001 89.5166 23.1294C87.8665 23.3874 85.9954 23.5163 83.9033 23.5163C82.5184 23.5163 81.2514 23.3874 80.1022 23.1294C78.953 22.8715 77.9659 22.4559 77.1409 21.8827C76.3453 21.3094 75.7118 20.5642 75.2403 19.6471C74.7983 18.7299 74.5773 17.5978 74.5773 16.2508C74.5773 14.961 74.8278 13.8719 75.3287 12.9834C75.8591 12.0949 76.5663 11.3784 77.4503 10.8338C78.3342 10.2606 79.3508 9.85938 80.5 9.63009C81.6786 9.37214 82.9015 9.24316 84.1685 9.24316C84.7578 9.24316 85.3766 9.28615 86.0248 9.37214C86.6731 9.42946 87.3655 9.5441 88.1022 9.71607V8.85624C88.1022 8.25436 88.0285 7.68114 87.8812 7.13658C87.7339 6.59202 87.4687 6.11912 87.0856 5.71786C86.732 5.28795 86.2458 4.95835 85.6271 4.72906C85.0377 4.49977 84.2864 4.38513 83.3729 4.38513C82.1353 4.38513 81.0009 4.47111 79.9696 4.64308C78.9383 4.81504 78.0985 5.01567 77.4503 5.24496L76.7873 1.03179C77.465 0.802506 78.4521 0.573219 79.7486 0.343932C81.0451 0.114644 82.43 0 83.9033 0Z" fill="currentColor"/>
<path d="M112.994 11.2208C112.994 8.87057 112.685 7.17957 112.066 6.14778C111.477 5.08732 110.357 4.5571 108.707 4.5571C108.117 4.5571 107.469 4.60009 106.762 4.68607C106.055 4.77205 105.524 4.8437 105.171 4.90103V23.0434H99.8228V1.28974C100.854 1.00313 102.195 0.730854 103.845 0.472905C105.524 0.214956 107.292 0.0859818 109.149 0.0859818C110.74 0.0859818 112.036 0.286609 113.038 0.687862C114.07 1.08912 114.924 1.61934 115.602 2.27855C115.926 2.04926 116.338 1.80564 116.839 1.54769C117.34 1.28974 117.9 1.06046 118.519 0.859828C119.138 0.63054 119.786 0.444244 120.464 0.300939C121.171 0.157634 121.878 0.0859818 122.585 0.0859818C124.383 0.0859818 125.856 0.343931 127.005 0.859828C128.184 1.34707 129.097 2.04926 129.745 2.96641C130.423 3.8549 130.88 4.94402 131.116 6.23376C131.381 7.49484 131.513 8.8849 131.513 10.4039V23.0434H126.165V11.2208C126.165 8.87057 125.871 7.17957 125.281 6.14778C124.692 5.08732 123.558 4.5571 121.878 4.5571C121.024 4.5571 120.213 4.7004 119.447 4.98701C118.681 5.24496 118.106 5.50291 117.723 5.76086C117.959 6.47738 118.121 7.2369 118.21 8.0394C118.298 8.84191 118.342 9.70174 118.342 10.6189V23.0434H112.994V11.2208Z" fill="currentColor"/>
<path d="M144.076 20.206C144.076 21.2091 143.723 22.026 143.016 22.6565C142.338 23.287 141.513 23.6023 140.54 23.6023C139.539 23.6023 138.699 23.287 138.021 22.6565C137.343 22.026 137.004 21.2091 137.004 20.206C137.004 19.2029 137.343 18.386 138.021 17.7555C138.699 17.0963 139.539 16.7667 140.54 16.7667C141.513 16.7667 142.338 17.0963 143.016 17.7555C143.723 18.386 144.076 19.2029 144.076 20.206Z" fill="currentColor"/>
<path d="M42.9983 27.9706C42.9983 27.5963 43.3017 27.2928 43.6761 27.2928H142.287C143.392 27.2928 144.287 28.1883 144.287 29.2928V29.9323C144.287 31.063 143.351 31.9688 142.221 31.9312L43.6535 28.648C43.2882 28.6358 42.9983 28.3362 42.9983 27.9706Z" fill="currentColor"/>
</svg>
